<?xml version="1.0" encoding="UTF-8" standalone="no"?>
<svg width="60px" height="60px" viewBox="0 0 60 60" version="1.1" xmlns="http://www.w3.org/2000/svg" xmlns:xlink="http://www.w3.org/1999/xlink" xmlns:sketch="http://www.bohemiancoding.com/sketch/ns">
    <!-- Generator: Sketch 3.2.2 (9983) - http://www.bohemiancoding.com/sketch -->
    <title>Lightdecrease</title>
    <desc>Created with Sketch.</desc>
    <defs></defs>
    <g id="stroked" stroke="none" stroke-width="1" fill="none" fill-rule="evenodd" sketch:type="MSPage">
        <g id="Tech" sketch:type="MSLayerGroup" transform="translate(-358.000000, -1809.000000)" stroke="#535353" stroke-width="2" stroke-linejoin="round">
            <g id="Lightdecrease" transform="translate(369.000000, 1812.000000)" sketch:type="MSShapeGroup">
                <path d="M37.6216583,22 C38.0305618,20.6177665 38,20.0208029 38,19 C38,8.50658975 29.4934102,0 19,0 C8.50658975,0 0,8.50658975 0,19 C0,20.0208029 0.207331291,21.0228037 0.36233288,22 C0.36233288,22 1.82524882,27.4453771 3.06015598,29.3443744 L10,46 L28,46 L34.939844,29.3443744 C36.1747512,27.4453771 37.2127549,23.3822335 37.6216583,22 Z" id="Oval-593" stroke-linecap="round"></path>
                <path d="M10,49 L28.0277557,49" id="Line" stroke-linecap="round"></path>
                <path d="M10,52 L28.0277557,52" id="Line" stroke-linecap="round"></path>
                <path d="M10,55 L28.0277557,55" id="Line" stroke-linecap="round"></path>
                <path d="M12,19 L26,19" id="Line-196" stroke-linecap="square"></path>
                <path d="M34,19 C34,10.7157288 27.2842712,4 19,4" id="Oval-593" stroke-linecap="round"></path>
            </g>
        </g>
    </g>
</svg>