<?xml version="1.0" encoding="UTF-8" standalone="no"?>
<svg width="60px" height="60px" viewBox="0 0 60 60" version="1.1" xmlns="http://www.w3.org/2000/svg" xmlns:xlink="http://www.w3.org/1999/xlink" xmlns:sketch="http://www.bohemiancoding.com/sketch/ns">
    <!-- Generator: Sketch 3.2.2 (9983) - http://www.bohemiancoding.com/sketch -->
    <title>Waterpipe</title>
    <desc>Created with Sketch.</desc>
    <defs></defs>
    <g id="stroked" stroke="none" stroke-width="1" fill="none" fill-rule="evenodd" sketch:type="MSPage">
        <g id="Medical" sketch:type="MSLayerGroup" transform="translate(-620.000000, -117.000000)" stroke-linecap="round" stroke="#535353" stroke-width="2">
            <g id="Waterpipe" transform="translate(629.000000, 120.000000)" sketch:type="MSShapeGroup">
                <path d="M40.5692821,31 L40.5692821,20.9987384 C40.5692821,16.5808964 36.9850382,13 32.5636492,13 L1.16573418e-15,13 L0,13 L8.8817842e-16,23 L26.5620924,23 C28.7752022,23 30.5692821,24.7912518 30.5692821,27.0081112 L30.5692821,31 L40.5692821,31 Z" id="Rectangle-164"></path>
                <path d="M26.5,31 L45,31" id="Line" stroke-linejoin="round"></path>
                <rect id="Rectangle-166" transform="translate(21.000000, 3.500000) rotate(-180.000000) translate(-21.000000, -3.500000) " x="13" y="1" width="16" height="5"></rect>
                <path d="M21,6.5 L21,12.5" id="Line"></path>
                <path d="M35,34.5 L35,53" id="Line"></path>
                <path d="M30,34.5 L24,53" id="Line"></path>
                <path d="M46,34.5 L40,53" id="Line" transform="translate(43.000000, 43.500000) scale(1, -1) translate(-43.000000, -43.500000) "></path>
                <path d="M39,44 L40.5,52.5" id="Line"></path>
                <path d="M29,44 L30.5,52.5" id="Line" transform="translate(30.000000, 48.500000) scale(-1, 1) translate(-30.000000, -48.500000) "></path>
            </g>
        </g>
    </g>
</svg>