<?xml version="1.0" encoding="iso-8859-1"?>
<!DOCTYPE svg PUBLIC "-//W3C//DTD SVG 1.1//EN" "http://www.w3.org/Graphics/SVG/1.1/DTD/svg11.dtd">
<svg 
 version="1.1" xmlns="http://www.w3.org/2000/svg" xmlns:xlink="http://www.w3.org/1999/xlink" x="0px" y="0px" width="512px"
	 height="512px" viewBox="0 0 512 512" style="enable-background:new 0 0 512 512;" xml:space="preserve"
><g id="afcae5a789ccd549f9c6e2a2f81275b9"><g></g><g fill="#4d4b4b"><path style="display: inline;" d="M184.732,511.5h282.716c0,0-205.367-241.799-234.331-348.421
		C195.071,23.046,308.862,1.44,308.862,1.44s-88.155-10.514-150.43,38.79c-95.2,75.363-113.88,177.755-113.88,177.755V511.5h82.046
		c0,0-9.567-43.26-15.167-106.213h46.564C169.586,469.038,184.732,511.5,184.732,511.5z M263.984,11.338
		c-1.958,0.75-4.068,1.617-6.309,2.608h-17.641c2.998-1.005,5.882-1.865,8.642-2.608H263.984z M243.931,20.902
		c-2.753,1.566-5.593,3.3-8.497,5.221h-22.628c3.376-1.92,6.714-3.665,9.991-5.221H243.931z M223.474,34.816
		c-2.062,1.642-4.133,3.376-6.212,5.214h-24.907c2.289-1.838,4.584-3.572,6.876-5.214H223.474z M209.866,46.992
		c-3.228,3.228-6.439,6.694-9.609,10.431h-26.3c3.394-3.751,6.852-7.22,10.342-10.431H209.866z M165.942,66.994h26.768
		c-4.629,6.302-9.096,13.226-13.291,20.87h-27.515C156.34,80.207,161.048,73.275,165.942,66.994z M139.855,112.213h28.2
		c-4.99,12.699-9.244,26.878-12.441,42.74c-0.107,0.53-0.203,1.077-0.313,1.614h-29.704c1.59-6.305,3.293-12.565,5.142-18.771
		C133.464,128.632,136.53,120.142,139.855,112.213z M107.542,307.892c0.406-32.622,2.694-66.862,7.919-100.885h32.433
		c-3.421,34.629-3.569,68.731-1.704,100.885H107.542z"></path></g></g></svg>